<svg width="1116" height="293" viewBox="0 0 1116 293" fill="none" xmlns="http://www.w3.org/2000/svg">
<path d="M995.625 20.936C995.625 13.2188 987.475 6.15556 974.434 2.49316C961.393 -1.16924 945.594 -0.776837 933.306 3.53956L812.931 45.3956C794.373 51.8048 789.483 64.754 801.771 74.4332C814.059 84.1124 839.012 86.663 857.445 80.2538L915.375 60.0452V251.144H835.125C812.931 251.144 795 260.496 795 272.072C795 283.648 812.931 293 835.125 293H955.5H1075.88C1098.07 293 1116 283.648 1116 272.072C1116 260.496 1098.07 251.144 1075.88 251.144H995.625V20.936Z" fill="black"/>
<path d="M147.677 26.1843C153.536 17.0068 148.224 6.05104 135.726 1.74906C123.227 -2.55292 108.307 1.34754 102.449 10.5251L2.38441 166.601C-1.28697 172.28 -0.662053 178.933 3.86858 184.268C8.39921 189.602 16.445 192.757 25.0376 192.757H200.014V238.645C200.014 248.798 211.184 257 225.01 257C238.836 257 250.007 248.798 250.007 238.645V192.757H275.003C288.83 192.757 300 184.555 300 174.402C300 164.249 288.83 156.047 275.003 156.047H250.007V73.4488C250.007 63.2961 238.836 55.0936 225.01 55.0936C211.184 55.0936 200.014 63.2961 200.014 73.4488V156.047H64.4072L147.677 26.1843Z" fill="black"/>
<g clip-path="url(#clip0_691_385)">
<path d="M381 146.5C381 107.646 398.542 70.3829 429.767 42.9089C460.992 15.4348 503.341 0 547.5 0C591.659 0 634.008 15.4348 665.233 42.9089C696.458 70.3829 714 107.646 714 146.5C714 185.354 696.458 222.617 665.233 250.091C634.008 277.565 591.659 293 547.5 293C503.341 293 460.992 277.565 429.767 250.091C398.542 222.617 381 185.354 381 146.5ZM601.287 226.56C605.58 223.184 605.905 217.404 602.068 213.627C591.596 203.383 573.321 192.281 547.5 192.281C521.679 192.281 503.404 203.383 492.932 213.627C489.095 217.404 489.42 223.184 493.713 226.56C498.005 229.936 504.574 229.65 508.412 225.873C516.021 218.434 528.964 210.594 547.5 210.594C566.036 210.594 578.979 218.434 586.588 225.873C590.426 229.65 596.995 229.936 601.287 226.56ZM495.729 155.656C507.241 155.656 516.541 147.473 516.541 137.344C516.541 136.485 516.476 135.627 516.346 134.826L523.436 136.886C528.899 138.488 534.752 135.913 536.573 131.106C538.395 126.299 535.468 121.149 530.005 119.546L467.567 101.234C462.104 99.6314 456.25 102.207 454.429 107.014C452.608 111.821 455.535 116.971 460.998 118.573L480.965 124.411C477.193 127.73 474.916 132.308 474.916 137.344C474.916 147.473 484.217 155.656 495.729 155.656ZM620.604 137.344C620.604 132.251 618.262 127.615 614.425 124.296L634.067 118.516C639.53 116.914 642.457 111.706 640.636 106.956C638.815 102.207 632.896 99.5742 627.498 101.177L565.061 119.489C559.597 121.091 556.671 126.299 558.492 131.049C560.313 135.799 566.231 138.431 571.63 136.829L579.239 134.597C579.109 135.455 579.044 136.371 579.044 137.287C579.044 147.416 588.345 155.599 599.856 155.599C611.368 155.599 620.669 147.416 620.669 137.287L620.604 137.344Z" fill="black"/>
</g>
<defs>
<clipPath id="clip0_691_385">
<rect width="333" height="293" fill="white" transform="translate(381)"/>
</clipPath>
</defs>
</svg>
