<svg width="939" height="265" viewBox="0 0 939 265" fill="none" xmlns="http://www.w3.org/2000/svg">
<path d="M71.6762 33.6177C73.238 25.8958 80.6009 20.2568 89.2467 20.2568H196.343C206.216 20.2568 214.192 27.5215 214.192 36.5134C214.192 45.5054 206.216 52.7701 196.343 52.7701H104.14L92.7608 109.668H156.182C198.072 109.668 232.042 140.607 232.042 178.759C232.042 216.911 198.072 247.849 156.182 247.849H109.606C87.6291 247.849 67.5485 236.521 57.7314 218.638L55.4444 214.473C51.0379 206.446 54.6077 196.692 63.4209 192.678C72.234 188.665 82.9436 191.916 87.3502 199.943L89.6372 204.109C93.4302 211.018 101.128 215.336 109.606 215.336H156.182C178.382 215.336 196.343 198.978 196.343 178.759C196.343 158.54 178.382 142.181 156.182 142.181H71.3973C66.0983 142.181 61.0781 140.048 57.6756 136.339C54.2731 132.631 52.8786 127.754 53.8268 123.029L71.6762 33.6177Z" fill="black"/>
<g clip-path="url(#clip0_694_435)">
<path d="M455.759 264.058C493.631 264.058 529.952 250.356 556.731 225.966C583.51 201.577 598.555 168.497 598.555 134.005C598.555 99.5129 583.51 66.4334 556.731 42.0438C529.952 17.6541 493.631 3.95215 455.759 3.95215C417.888 3.95215 381.567 17.6541 354.788 42.0438C328.009 66.4334 312.964 99.5129 312.964 134.005C312.964 168.497 328.009 201.577 354.788 225.966C381.567 250.356 417.888 264.058 455.759 264.058ZM455.759 68.9786C463.178 68.9786 469.146 74.4144 469.146 81.171V138.069C469.146 144.826 463.178 150.262 455.759 150.262C448.341 150.262 442.372 144.826 442.372 138.069V81.171C442.372 74.4144 448.341 68.9786 455.759 68.9786ZM437.91 182.775C437.91 178.463 439.791 174.328 443.138 171.28C446.485 168.231 451.025 166.518 455.759 166.518C460.493 166.518 465.033 168.231 468.381 171.28C471.728 174.328 473.609 178.463 473.609 182.775C473.609 187.086 471.728 191.221 468.381 194.27C465.033 197.319 460.493 199.031 455.759 199.031C451.025 199.031 446.485 197.319 443.138 194.27C439.791 191.221 437.91 187.086 437.91 182.775Z" fill="black"/>
</g>
<g clip-path="url(#clip1_694_435)">
<path d="M795.795 260.106C833.667 260.106 869.987 246.404 896.766 222.014C923.546 197.624 938.59 164.545 938.59 130.053C938.59 95.5607 923.546 62.4813 896.766 38.0916C869.987 13.702 833.667 0 795.795 0C757.923 0 721.603 13.702 694.824 38.0916C668.044 62.4813 653 95.5607 653 130.053C653 164.545 668.044 197.624 694.824 222.014C721.603 246.404 757.923 260.106 795.795 260.106ZM747.713 83.9755C752.12 72.6467 763.945 65.0264 777.165 65.0264H809.684C829.151 65.0264 844.881 79.4034 844.881 97.0824C844.881 108.564 838.132 119.181 827.199 124.922L809.182 134.32C809.071 140.924 803.102 146.309 795.795 146.309C788.376 146.309 782.408 140.874 782.408 134.117V127.259C782.408 122.89 784.974 118.876 789.157 116.692L813.868 103.788C816.489 102.417 818.107 99.8765 818.107 97.1332C818.107 92.8659 814.314 89.4622 809.684 89.4622H777.165C775.268 89.4622 773.595 90.529 772.981 92.1546L772.758 92.7643C770.304 99.1145 762.606 102.417 755.69 100.181C748.773 97.9461 745.092 90.9354 747.546 84.636L747.769 84.0263L747.713 83.9755ZM777.946 178.823C777.946 174.511 779.826 170.376 783.174 167.328C786.521 164.279 791.061 162.566 795.795 162.566C800.529 162.566 805.069 164.279 808.417 167.328C811.764 170.376 813.644 174.511 813.644 178.823C813.644 183.134 811.764 187.269 808.417 190.318C805.069 193.367 800.529 195.079 795.795 195.079C791.061 195.079 786.521 193.367 783.174 190.318C779.826 187.269 777.946 183.134 777.946 178.823Z" fill="black"/>
</g>
<defs>
<clipPath id="clip0_694_435">
<rect width="285.59" height="260.106" fill="white" transform="translate(313 4)"/>
</clipPath>
<clipPath id="clip1_694_435">
<rect width="285.59" height="260.106" fill="white" transform="translate(653)"/>
</clipPath>
</defs>
</svg>
