<svg width="30" height="31" viewBox="0 0 30 31" fill="none" xmlns="http://www.w3.org/2000/svg">
    <path d="M26.5 9.4375V27.25C26.5 28.2446 26.1049 29.1984 25.4016 29.9016C24.6984 30.6049 23.7446 31 22.75 31H7.75C6.75544 31 5.80161 30.6049 5.09835 29.9016C4.39509 29.1984 4 28.2446 4 27.25V4.75C4 3.75544 4.39509 2.80161 5.09835 2.09835C5.80161 1.39509 6.75544 1 7.75 1L18.0625 1L26.5 9.4375ZM20.875 9.4375C20.1291 9.4375 19.4137 9.14118 18.8863 8.61374C18.3588 8.08629 18.0625 7.37092 18.0625 6.625V2.875H7.75C7.25272 2.875 6.77581 3.07254 6.42417 3.42417C6.07254 3.77581 5.875 4.25272 5.875 4.75V27.25C5.875 27.7473 6.07254 28.2242 6.42417 28.5758C6.77581 28.9275 7.25272 29.125 7.75 29.125H22.75C23.2473 29.125 23.7242 28.9275 24.0758 28.5758C24.4275 28.2242 24.625 27.7473 24.625 27.25V9.4375H20.875Z" fill="black"/>
</svg>
