<svg width="30" height="31" viewBox="0 0 30 31" fill="none" xmlns="http://www.w3.org/2000/svg">
    <g clip-path="url(#clip0_229_117)">
        <path d="M15.9656 2.51335C15.6443 2.48962 15.3222 2.47774 15 2.47772V0.602722C15.3685 0.602902 15.7369 0.616661 16.1044 0.643972L15.9656 2.51335ZM19.7231 3.3571C19.1221 3.12515 18.5048 2.93777 17.8763 2.79647L18.2869 0.966472C19.0069 1.12772 19.7106 1.34147 20.3981 1.60772L19.7231 3.3571ZM22.2919 4.68835C22.0238 4.50955 21.7492 4.34069 21.4687 4.1821L22.3931 2.55085C23.0343 2.91396 23.6478 3.32382 24.2288 3.7771L23.0756 5.25647C22.8214 5.05816 22.56 4.86928 22.2919 4.69022V4.68835ZM25.7306 8.0446C25.3597 7.51772 24.9505 7.01887 24.5062 6.5521L25.8637 5.25835C26.3712 5.7946 26.8381 6.36335 27.2644 6.9646L25.7306 8.0446ZM27.1256 10.5796C27.0027 10.2823 26.8688 9.98958 26.7244 9.7021L28.3988 8.85835C28.7297 9.5167 29.0117 10.1985 29.2425 10.8983L27.4613 11.4852C27.3605 11.1793 27.2486 10.8773 27.1256 10.5796ZM28.1194 15.2802C28.1041 14.6359 28.0415 13.9935 27.9319 13.3583L29.7787 13.0396C29.9038 13.7646 29.9763 14.4958 29.9963 15.2333L28.1194 15.2802ZM27.8738 18.164C27.9363 17.8465 27.9869 17.5277 28.0256 17.2077L29.8875 17.4383C29.7971 18.1698 29.653 18.8937 29.4563 19.604L27.6488 19.1033C27.735 18.7946 27.81 18.4815 27.8738 18.164ZM26.0887 22.6246C26.4337 22.0796 26.7375 21.5121 27 20.9221L28.7137 21.6815C28.4138 22.3565 28.0669 23.0052 27.6731 23.6277L26.0887 22.6246ZM24.2812 24.884C24.51 24.6552 24.7288 24.419 24.9375 24.1752L26.3587 25.3996C26.1182 25.6787 25.8674 25.9489 25.6069 26.2096L24.2812 24.884Z" fill="black"/>
        <path d="M15 2.47772C12.8416 2.47788 10.7166 3.01031 8.81321 4.02786C6.90977 5.0454 5.28665 6.51666 4.0876 8.31132C2.88856 10.106 2.15061 12.1686 1.93911 14.3166C1.72761 16.4646 2.04909 18.6315 2.87508 20.6256C3.70107 22.6196 5.00606 24.3792 6.67448 25.7484C8.34291 27.1177 10.3233 28.0544 12.4401 28.4755C14.557 28.8966 16.745 28.7892 18.8105 28.1627C20.8759 27.5362 22.755 26.4101 24.2812 24.884L25.6069 26.2096C23.8626 27.9548 21.7148 29.2428 19.3538 29.9596C16.9928 30.6763 14.4914 30.7997 12.0714 30.3186C9.65129 29.8376 7.38723 28.7671 5.47978 27.2019C3.57232 25.6367 2.08038 23.6252 1.13612 21.3456C0.191873 19.066 -0.175528 16.5887 0.0664742 14.1332C0.308476 11.6777 1.15241 9.31979 2.5235 7.26838C3.89459 5.21698 5.7505 3.53543 7.9268 2.37273C10.1031 1.21003 12.5326 0.602068 15 0.602723V2.47772Z" fill="black"/>
        <path d="M14.0625 6.22772C14.3111 6.22772 14.5496 6.32649 14.7254 6.50231C14.9012 6.67813 15 6.91658 15 7.16522V16.934L21.09 20.414C21.2996 20.5404 21.4514 20.7438 21.5131 20.9808C21.5747 21.2177 21.5412 21.4693 21.4197 21.6818C21.2983 21.8944 21.0985 22.051 20.8631 22.1182C20.6277 22.1854 20.3754 22.1579 20.16 22.0415L13.5975 18.2915C13.454 18.2095 13.3347 18.0911 13.2518 17.9482C13.1688 17.8053 13.1251 17.643 13.125 17.4777V7.16522C13.125 6.91658 13.2238 6.67813 13.3996 6.50231C13.5754 6.32649 13.8139 6.22772 14.0625 6.22772Z" fill="black"/>
    </g>
    <defs>
        <clipPath id="clip0_229_117">
        <rect width="30" height="30" fill="white" transform="translate(0 0.602722)"/>
        </clipPath>
    </defs>
</svg>
