<svg width="30" height="30" viewBox="0 0 30 30" fill="none" xmlns="http://www.w3.org/2000/svg">
    <g clip-path="url(#clip0_229_136)">
        <path d="M0.9375 0C1.18614 0 1.4246 0.0987721 1.60041 0.274587C1.77623 0.450403 1.875 0.68886 1.875 0.9375V29.0625C1.875 29.3111 1.77623 29.5496 1.60041 29.7254C1.4246 29.9012 1.18614 30 0.9375 30C0.68886 30 0.450403 29.9012 0.274587 29.7254C0.0987721 29.5496 0 29.3111 0 29.0625V0.9375C0 0.68886 0.0987721 0.450403 0.274587 0.274587C0.450403 0.0987721 0.68886 0 0.9375 0ZM3.75 2.8125C3.75 2.56386 3.84877 2.3254 4.02459 2.14959C4.2004 1.97377 4.43886 1.875 4.6875 1.875H12.1875C12.4361 1.875 12.6746 1.97377 12.8504 2.14959C13.0262 2.3254 13.125 2.56386 13.125 2.8125V4.6875C13.125 4.93614 13.0262 5.1746 12.8504 5.35041C12.6746 5.52623 12.4361 5.625 12.1875 5.625H4.6875C4.43886 5.625 4.2004 5.52623 4.02459 5.35041C3.84877 5.1746 3.75 4.93614 3.75 4.6875V2.8125ZM7.5 10.3125C7.5 10.0639 7.59877 9.8254 7.77459 9.64959C7.9504 9.47377 8.18886 9.375 8.4375 9.375H21.5625C21.8111 9.375 22.0496 9.47377 22.2254 9.64959C22.4012 9.8254 22.5 10.0639 22.5 10.3125V12.1875C22.5 12.4361 22.4012 12.6746 22.2254 12.8504C22.0496 13.0262 21.8111 13.125 21.5625 13.125H8.4375C8.18886 13.125 7.9504 13.0262 7.77459 12.8504C7.59877 12.6746 7.5 12.4361 7.5 12.1875V10.3125ZM11.25 17.8125C11.25 17.5639 11.3488 17.3254 11.5246 17.1496C11.7004 16.9738 11.9389 16.875 12.1875 16.875H23.4375C23.6861 16.875 23.9246 16.9738 24.1004 17.1496C24.2762 17.3254 24.375 17.5639 24.375 17.8125V19.6875C24.375 19.9361 24.2762 20.1746 24.1004 20.3504C23.9246 20.5262 23.6861 20.625 23.4375 20.625H12.1875C11.9389 20.625 11.7004 20.5262 11.5246 20.3504C11.3488 20.1746 11.25 19.9361 11.25 19.6875V17.8125ZM15 25.3125C15 25.0639 15.0988 24.8254 15.2746 24.6496C15.4504 24.4738 15.6889 24.375 15.9375 24.375H29.0625C29.3111 24.375 29.5496 24.4738 29.7254 24.6496C29.9012 24.8254 30 25.0639 30 25.3125V27.1875C30 27.4361 29.9012 27.6746 29.7254 27.8504C29.5496 28.0262 29.3111 28.125 29.0625 28.125H15.9375C15.6889 28.125 15.4504 28.0262 15.2746 27.8504C15.0988 27.6746 15 27.4361 15 27.1875V25.3125Z" fill="black"/>
    </g>
    <defs>
        <clipPath id="clip0_229_136">
        <rect width="30" height="30" fill="white"/>
        </clipPath>
    </defs>
</svg>
