<svg width="51" height="51" viewBox="0 0 51 51" fill="none" xmlns="http://www.w3.org/2000/svg">
	<g clip-path="url(#clip0_226_53)">
		<path d="M0.414201 7.791V15.3148L5.60239 19.6005L10.7906 23.8862V26.6481V29.4418H16.6321C22.2046 29.4418 22.512 29.41 24.1646 28.6164C27.8924 26.8069 28.392 22.3624 25.1638 19.8545C24.2414 19.1243 21.6666 17.9815 20.9748 18.0132C20.8595 18.0132 18.4384 18.0132 15.5945 18.0132H10.3678L10.4831 13.4735L10.5984 8.96561L16.9395 8.87037C20.8595 8.80688 24.0877 8.90211 25.3944 9.15608C33.5418 10.5847 39.6139 16.8704 39.6139 23.8545C39.6139 28.2672 37.846 31.8862 34.2335 34.8386C30.0445 38.2672 26.3552 39.2831 17.8619 39.2831H12.4431L7.29336 34.9339C4.44946 32.5212 1.72086 30.2672 1.18282 29.8862L0.222046 29.1878L0.337339 38.5212L0.452632 47.8545H13.058C27.0085 47.8545 28.7763 47.664 33.8876 45.664C45.6091 41.0291 52.2961 29.9497 49.6444 19.4418C47.5691 11.1243 40.8821 4.55291 31.5818 1.69577C27.2391 0.362431 25.5481 0.235447 12.7121 0.235447H0.414201V7.791Z" fill="#2DACB5"/>
	</g>
	<defs>
		<clipPath id="clip0_226_53">
		<rect width="50" height="50" fill="white" transform="translate(0.5 0.5)"/>
		</clipPath>
	</defs>
</svg>
