<svg width="25" height="25" viewBox="0 0 25 25" fill="none" xmlns="http://www.w3.org/2000/svg">
    <path d="M20.1 21.5L13.8 15.2C13.3 15.6 12.725 15.9167 12.075 16.15C11.425 16.3833 10.7333 16.5 10 16.5C8.18333 16.5 6.646 15.8707 5.388 14.612C4.13 13.3533 3.50067 11.816 3.5 10C3.49933 8.184 4.12867 6.64667 5.388 5.388C6.64733 4.12933 8.18467 3.5 10 3.5C11.8153 3.5 13.353 4.12933 14.613 5.388C15.873 6.64667 16.502 8.184 16.5 10C16.5 10.7333 16.3833 11.425 16.15 12.075C15.9167 12.725 15.6 13.3 15.2 13.8L21.5 20.1L20.1 21.5ZM10 14.5C11.25 14.5 12.3127 14.0627 13.188 13.188C14.0633 12.3133 14.5007 11.2507 14.5 10C14.4993 8.74933 14.062 7.687 13.188 6.813C12.314 5.939 11.2513 5.50133 10 5.5C8.74867 5.49867 7.68633 5.93633 6.813 6.813C5.93967 7.68967 5.502 8.752 5.5 10C5.498 11.248 5.93567 12.3107 6.813 13.188C7.69033 14.0653 8.75267 14.5027 10 14.5Z" fill="black" fill-opacity="0.3"/>
</svg>
