<svg width="1440" height="130" viewBox="0 0 1440 130" fill="none" xmlns="http://www.w3.org/2000/svg">
    <path d="M0 56.7508L34.4 64.3175C68.8 71.8167 137.6 86.9503 206.08 96.2736C274.72 105.597 342.88 109.245 411.52 104.516C480 99.7868 548.8 86.68 617.28 78.5728C685.92 70.4655 754.08 67.3577 822.72 70.9384C891.2 74.5191 960 84.9235 1028.48 98.3004C1097.12 111.677 1165.28 128.162 1233.92 129.851C1302.4 131.54 1371.2 118.433 1405.6 111.948L1440 105.394V0H1405.6C1371.2 0 1302.4 0 1233.92 0C1165.28 0 1097.12 0 1028.48 0C960 0 891.2 0 822.72 0C754.08 0 685.92 0 617.28 0C548.8 0 480 0 411.52 0C342.88 0 274.72 0 206.08 0C137.6 0 68.8 0 34.4 0H0V56.7508Z" fill="#FDFDFD"/>
</svg>
