<svg width="30" height="30" viewBox="0 0 30 30" fill="none" xmlns="http://www.w3.org/2000/svg">
    <g clip-path="url(#clip0_229_78)">
        <path fill-rule="evenodd" clip-rule="evenodd" d="M0 0H1.875V28.125H30V30H0V0ZM18.75 6.5625C18.75 6.31386 18.8488 6.0754 19.0246 5.89959C19.2004 5.72377 19.4389 5.625 19.6875 5.625H27.1875C27.4361 5.625 27.6746 5.72377 27.8504 5.89959C28.0262 6.0754 28.125 6.31386 28.125 6.5625V14.0625C28.125 14.3111 28.0262 14.5496 27.8504 14.7254C27.6746 14.9012 27.4361 15 27.1875 15C26.9389 15 26.7004 14.9012 26.5246 14.7254C26.3488 14.5496 26.25 14.3111 26.25 14.0625V9.1875L19.4756 17.4694C19.3927 17.5706 19.2895 17.6533 19.1727 17.7123C19.0558 17.7712 18.9279 17.805 18.7972 17.8116C18.6666 17.8181 18.5359 17.7972 18.4138 17.7502C18.2917 17.7032 18.1807 17.6312 18.0881 17.5387L13.2375 12.6881L6.3825 22.1137C6.23254 22.3044 6.01451 22.4296 5.77422 22.4629C5.53393 22.4961 5.29009 22.435 5.09395 22.2922C4.8978 22.1495 4.76462 21.9363 4.72239 21.6974C4.68017 21.4585 4.73218 21.2126 4.8675 21.0113L12.3675 10.6987C12.4471 10.5891 12.5495 10.498 12.6677 10.4317C12.7859 10.3655 12.9171 10.3256 13.0522 10.3149C13.1873 10.3042 13.3231 10.3229 13.4502 10.3698C13.5774 10.4166 13.6929 10.4905 13.7887 10.5863L18.6806 15.48L25.2094 7.5H19.6875C19.4389 7.5 19.2004 7.40123 19.0246 7.22541C18.8488 7.0496 18.75 6.81114 18.75 6.5625Z" fill="black"/>
    </g>
    <defs>
        <clipPath id="clip0_229_78">
        <rect width="30" height="30" fill="white"/>
        </clipPath>
    </defs>
</svg>
