<svg width="95" height="71" viewBox="0 0 95 71" fill="none" xmlns="http://www.w3.org/2000/svg">
    <g clip-path="url(#clip0_226_52)">
        <path d="M22.4142 7.791V15.3148L27.6024 19.6005L32.7906 23.8862V26.6481V29.4418H38.6321C44.2046 29.4418 44.512 29.41 46.1646 28.6164C49.8924 26.8069 50.392 22.3624 47.1638 19.8545C46.2414 19.1243 43.6666 17.9815 42.9748 18.0132C42.8595 18.0132 40.4384 18.0132 37.5945 18.0132H32.3678L32.4831 13.4735L32.5984 8.96561L38.9395 8.87037C42.8595 8.80688 46.0877 8.90211 47.3944 9.15608C55.5418 10.5847 61.6139 16.8704 61.6139 23.8545C61.6139 28.2672 59.846 31.8862 56.2335 34.8386C52.0445 38.2672 48.3552 39.2831 39.8619 39.2831H34.4431L29.2934 34.9339C26.4495 32.5212 23.7209 30.2672 23.1828 29.8862L22.222 29.1878L22.3373 38.5212L22.4526 47.8545H35.058C49.0085 47.8545 50.7763 47.664 55.8876 45.664C67.6091 41.0291 74.2961 29.9497 71.6444 19.4418C69.5691 11.1243 62.8821 4.55291 53.5818 1.69577C49.2391 0.362431 47.5481 0.235447 34.7121 0.235447H22.4142V7.791Z" fill="#2DACB5"/>
    </g>
    <path d="M8.54901 70.5H4.24787V58.8636H8.54332C9.72893 58.8636 10.7498 59.0966 11.6058 59.5625C12.4657 60.0246 13.1286 60.6913 13.5945 61.5625C14.0604 62.4299 14.2933 63.4678 14.2933 64.6761C14.2933 65.8883 14.0604 66.9299 13.5945 67.8011C13.1323 68.6723 12.4714 69.3409 11.6115 69.8068C10.7517 70.2689 9.73082 70.5 8.54901 70.5ZM7.06037 68.1023H8.44105C9.09257 68.1023 9.6437 67.9924 10.0945 67.7727C10.549 67.5492 10.8918 67.1875 11.1229 66.6875C11.3577 66.1837 11.4751 65.5133 11.4751 64.6761C11.4751 63.839 11.3577 63.1723 11.1229 62.6761C10.888 62.1761 10.5414 61.8163 10.0831 61.5966C9.62855 61.3731 9.06795 61.2614 8.40128 61.2614H7.06037V68.1023ZM17.7649 70.5H14.7422L18.6683 58.8636H22.4126L26.3388 70.5H23.3161L20.5831 61.7955H20.4922L17.7649 70.5ZM17.3615 65.9205H23.6797V68.0568H17.3615V65.9205ZM25.7578 61.1477V58.8636H35.593V61.1477H32.0646V70.5H29.2919V61.1477H25.7578ZM38.0305 70.5H35.0078L38.9339 58.8636H42.6783L46.6044 70.5H43.5817L40.8487 61.7955H40.7578L38.0305 70.5ZM37.6271 65.9205H43.9453V68.0568H37.6271V65.9205ZM53.7876 62.3523C53.7498 61.9356 53.5812 61.6117 53.282 61.3807C52.9865 61.1458 52.5642 61.0284 52.0149 61.0284C51.6513 61.0284 51.3482 61.0758 51.1058 61.1705C50.8634 61.2652 50.6816 61.3958 50.5604 61.5625C50.4392 61.7254 50.3767 61.9129 50.3729 62.125C50.3653 62.2992 50.3994 62.4527 50.4751 62.5852C50.5547 62.7178 50.6683 62.8352 50.8161 62.9375C50.9676 63.036 51.1494 63.1231 51.3615 63.1989C51.5736 63.2746 51.8123 63.3409 52.0774 63.3977L53.0774 63.625C53.6532 63.75 54.1607 63.9167 54.6001 64.125C55.0433 64.3333 55.4145 64.5814 55.7138 64.8693C56.0168 65.1572 56.246 65.4886 56.4013 65.8636C56.5566 66.2386 56.6361 66.6591 56.6399 67.125C56.6361 67.8598 56.4505 68.4905 56.0831 69.017C55.7157 69.5436 55.1873 69.947 54.4979 70.2273C53.8123 70.5076 52.9846 70.6477 52.0149 70.6477C51.0414 70.6477 50.1929 70.5019 49.4695 70.2102C48.746 69.9186 48.1835 69.4754 47.782 68.8807C47.3804 68.286 47.174 67.5341 47.1626 66.625H49.8558C49.8786 67 49.9789 67.3125 50.157 67.5625C50.335 67.8125 50.5793 68.0019 50.8899 68.1307C51.2043 68.2595 51.5679 68.3239 51.9808 68.3239C52.3596 68.3239 52.6816 68.2727 52.9467 68.1705C53.2157 68.0682 53.4221 67.9261 53.5661 67.7443C53.71 67.5625 53.7839 67.3542 53.7876 67.1193C53.7839 66.8996 53.7157 66.7121 53.5831 66.5568C53.4505 66.3977 53.246 66.2614 52.9695 66.1477C52.6967 66.0303 52.3482 65.9223 51.924 65.8239L50.7081 65.5398C49.7005 65.3087 48.907 64.9356 48.3274 64.4205C47.7479 63.9015 47.46 63.2008 47.4638 62.3182C47.46 61.5985 47.6532 60.9678 48.0433 60.4261C48.4335 59.8845 48.9732 59.4621 49.6626 59.1591C50.352 58.8561 51.138 58.7045 52.0206 58.7045C52.9221 58.7045 53.7043 58.858 54.3672 59.1648C55.0339 59.4678 55.5509 59.8939 55.9183 60.4432C56.2857 60.9924 56.4732 61.6288 56.4808 62.3523H53.7876ZM67.9638 58.8636V70.5H65.5774L60.9467 63.7841H60.8729V70.5H58.0604V58.8636H60.4808L65.0604 65.5682H65.157V58.8636H67.9638ZM72.2493 70.5H69.2266L73.1527 58.8636H76.897L80.8232 70.5H77.8004L75.0675 61.7955H74.9766L72.2493 70.5ZM71.8459 65.9205H78.1641V68.0568H71.8459V65.9205ZM82.076 70.5V58.8636H86.8828C87.754 58.8636 88.5059 59.0341 89.1385 59.375C89.7749 59.7121 90.2654 60.1837 90.6101 60.7898C90.9548 61.392 91.1271 62.0928 91.1271 62.892C91.1271 63.6951 90.951 64.3977 90.5987 65C90.2502 65.5985 89.7521 66.0625 89.1044 66.392C88.4567 66.7216 87.6877 66.8864 86.7976 66.8864H83.8317V64.6705H86.2749C86.6991 64.6705 87.0533 64.5966 87.3374 64.4489C87.6252 64.3011 87.843 64.0947 87.9908 63.8295C88.1385 63.5606 88.2124 63.2481 88.2124 62.892C88.2124 62.5322 88.1385 62.2216 87.9908 61.9602C87.843 61.6951 87.6252 61.4905 87.3374 61.3466C87.0495 61.2027 86.6953 61.1307 86.2749 61.1307H84.8885V70.5H82.076Z" fill="#2DACB5"/>
    <defs>
        <clipPath id="clip0_226_52">
        <rect width="50" height="50" fill="white" transform="translate(22.5 0.5)"/>
        </clipPath>
    </defs>
</svg>
